<?xml version="1.0" standalone="no"?>
<!DOCTYPE svg PUBLIC "-//W3C//DTD SVG 20010904//EN"
 "http://www.w3.org/TR/2001/REC-SVG-20010904/DTD/svg10.dtd">
<svg version="1.0" xmlns="http://www.w3.org/2000/svg"
 width="395.000000pt" height="465.000000pt" viewBox="0 0 395.000000 465.000000"
 preserveAspectRatio="xMidYMid meet">

<g transform="translate(0.000000,465.000000) scale(0.100000,-0.100000)"
fill="#000000" stroke="none">
<path d="M7 4643 c-4 -3 -7 -651 -7 -1440 0 -1411 0 -1434 19 -1423 11 5 25
16 33 22 7 7 38 30 69 50 54 35 57 36 62 17 6 -23 -21 -52 -121 -126 l-62 -47
0 -178 0 -179 90 63 c50 35 104 71 121 81 16 9 40 26 51 37 12 11 30 20 40 20
10 0 18 6 18 13 1 13 40 -30 40 -43 0 -12 -108 -94 -242 -185 l-117 -80 -1
-42 0 -42 48 31 c26 18 49 36 50 40 2 4 7 8 12 8 5 0 73 43 151 96 132 88 144
94 156 78 7 -10 13 -23 13 -28 -1 -10 -179 -140 -353 -257 l-77 -52 0 -64 c0
-34 3 -63 6 -63 4 0 86 53 183 118 97 65 205 136 241 157 36 21 68 42 71 47 3
5 15 -2 26 -14 28 -32 61 -84 46 -75 -7 5 -57 -23 -125 -70 -62 -43 -188 -128
-280 -188 l-167 -110 -1 -278 c0 -226 2 -276 13 -270 7 4 85 53 173 107 307
191 359 223 389 240 17 9 44 25 60 36 17 11 37 23 45 27 8 3 17 9 20 13 6 7
94 65 155 101 22 13 45 30 51 38 10 13 25 5 100 -51 182 -134 354 -232 529
-303 39 -16 77 -35 85 -43 13 -13 13 -13 -6 -4 -12 7 -26 7 -35 1 -11 -7 -10
-9 5 -9 14 0 9 -10 -26 -45 -25 -25 -54 -45 -65 -45 -10 0 -29 -9 -41 -20 -14
-13 -35 -20 -62 -20 -35 0 -47 -6 -73 -35 -21 -24 -33 -31 -38 -23 -6 9 -11 9
-23 -1 -8 -7 -15 -16 -14 -19 2 -21 -6 -27 -38 -29 -19 -1 -42 -7 -50 -14 -8
-6 -17 -9 -20 -6 -4 3 -22 -9 -40 -28 -19 -19 -42 -35 -52 -35 -10 0 -29 -11
-41 -24 -13 -14 -33 -26 -44 -28 -11 -2 -26 -13 -35 -25 l-14 -23 271 0 c302
0 283 -4 410 77 29 19 88 53 130 75 42 23 127 72 189 110 63 37 118 68 123 68
5 0 9 4 9 9 0 16 32 22 163 31 71 5 145 12 165 15 35 6 34 4 -23 -27 -33 -19
-89 -53 -125 -75 -36 -23 -123 -76 -195 -119 -71 -42 -157 -93 -190 -114 -33
-20 -67 -39 -75 -43 -8 -3 0 -6 18 -6 31 -1 152 54 160 72 2 4 10 7 18 7 7 0
46 19 86 43 80 46 93 53 188 92 36 14 106 50 155 79 50 30 110 64 135 78 25
13 63 35 85 49 22 14 56 34 75 45 19 10 37 22 40 25 3 4 43 28 90 53 47 26
105 60 130 77 25 16 52 32 60 35 8 4 45 24 82 46 36 21 74 38 82 38 9 0 16 4
16 10 0 5 21 19 46 31 26 11 56 30 68 40 11 11 22 15 24 10 2 -6 18 -2 36 9
18 10 44 24 57 32 13 7 34 22 47 32 12 11 22 16 22 12 0 -5 6 -4 12 1 7 6 67
39 133 73 66 34 125 66 130 70 10 8 132 74 172 94 19 9 23 19 23 64 l0 54 -32
-20 c-18 -11 -82 -48 -143 -82 -60 -34 -139 -80 -173 -102 -35 -22 -65 -38
-67 -36 -2 2 14 26 36 53 22 28 60 83 85 123 40 63 55 77 113 109 36 20 92 51
124 70 l57 34 0 290 0 289 -25 6 c-14 3 -25 12 -25 20 0 10 6 11 25 4 l25 -10
0 420 c0 313 -3 420 -12 420 -6 0 -23 -11 -37 -25 -14 -13 -47 -40 -73 -60
l-48 -35 -14 34 c-7 18 -17 48 -21 67 -9 44 -121 278 -168 351 -48 76 -80 139
-73 146 3 3 6 3 6 -1 0 -21 135 55 372 209 l68 44 0 100 c0 55 -3 100 -6 100
-3 0 -45 -30 -94 -67 -49 -38 -98 -75 -110 -83 -12 -8 -30 -22 -40 -30 -10 -8
-54 -42 -99 -74 -45 -32 -81 -65 -81 -72 0 -8 -4 -14 -10 -14 -5 0 -7 -6 -4
-13 3 -8 -2 -20 -11 -27 -8 -7 -15 -20 -15 -29 -1 -19 -62 47 -87 93 -8 17
-34 50 -56 74 -42 43 -77 91 -77 104 0 3 9 4 20 1 11 -3 20 0 20 6 0 6 6 11
14 11 8 0 54 26 103 58 48 32 116 76 150 98 35 21 63 42 63 47 0 4 5 7 11 7 6
0 40 20 76 45 35 25 70 45 77 45 7 0 21 9 31 20 10 11 22 20 26 20 5 0 29 14
54 32 l45 32 0 288 0 288 -1968 0 c-1083 0 -1972 -3 -1975 -7z m3790 -193
c-14 -11 -31 -20 -39 -20 -17 1 33 39 51 40 8 0 3 -9 -12 -20z m-2042 -40
c-16 -4 -46 -8 -65 -8 -32 0 -33 1 -10 8 14 4 43 8 65 8 38 0 39 -1 10 -8z
m1985 3 c0 -5 -37 -35 -82 -68 -45 -33 -86 -65 -92 -71 -9 -8 -264 -202 -462
-351 -23 -17 -45 -37 -49 -42 -12 -20 -31 -11 -77 34 -49 48 -52 55 -14 30 22
-14 24 -14 30 2 6 15 9 15 16 3 9 -14 35 1 199 113 126 87 162 111 226 154 39
26 72 50 75 53 3 4 37 28 75 54 39 26 85 58 104 71 35 25 51 31 51 18z m-2144
-16 c4 -4 -13 -7 -37 -6 -36 1 -39 2 -19 8 29 9 46 8 56 -2z m41 7 c-3 -3 -12
-4 -19 -1 -8 3 -5 6 6 6 11 1 17 -2 13 -5z m-297 -64 c0 -5 -10 -10 -22 -9
-22 0 -22 1 -3 9 11 5 21 9 23 9 1 1 2 -3 2 -9z m-284 -129 c-8 -12 -112 -81
-123 -81 -4 0 6 9 22 20 35 23 60 40 83 57 20 15 25 16 18 4z m-202 -174
c-242 -254 -379 -566 -426 -967 -9 -79 -14 -102 -16 -72 -2 23 -7 42 -13 42
-5 0 -10 8 -10 18 -1 16 -2 16 -6 -1 -2 -9 -9 -15 -14 -12 -5 4 -9 1 -9 -6 0
-8 -7 -6 -19 5 -17 16 -20 15 -51 -14 -19 -17 -45 -37 -60 -45 l-26 -14 8 72
c18 154 88 363 155 463 21 32 44 68 51 81 7 12 17 23 23 23 5 0 14 11 19 25 9
23 13 24 31 14 14 -7 19 -7 15 0 -4 6 2 16 14 23 11 7 20 17 20 22 0 5 -10 0
-23 -12 -24 -23 -37 -28 -37 -14 0 9 125 142 134 142 8 0 105 99 195 199 40
45 76 79 79 76 3 -3 -12 -24 -34 -48z m2051 -55 c-3 -3 -16 5 -28 17 l-22 23
28 -17 c15 -10 25 -20 22 -23z m215 -127 c7 -9 10 -18 7 -22 -4 -3 -10 2 -13
11 -5 13 -9 14 -14 5 -11 -17 26 -54 53 -54 15 0 23 -7 25 -22 5 -35 -19 -28
-63 17 -21 22 -47 40 -57 40 -10 0 -18 7 -18 16 0 10 6 14 15 11 8 -4 17 -2
20 3 9 15 31 12 45 -5z m97 -48 c-23 -24 -37 -25 -37 -2 0 12 17 21 47 24 7 0
2 -9 -10 -22z m-2642 -6 c-3 -6 -11 -11 -17 -11 -6 0 -6 6 2 15 14 17 26 13
15 -4z m-46 -38 c-7 -10 -32 -40 -55 -68 -22 -27 -53 -69 -68 -92 -19 -32 -33
-43 -51 -43 -14 0 -25 5 -25 11 0 11 194 209 206 209 3 0 0 -8 -7 -17z m2708
-69 c0 -18 0 -18 -21 5 -17 19 -17 19 1 15 11 -3 20 -12 20 -20z m-2901 -174
c18 0 18 -3 -6 -50 -47 -92 -111 -265 -138 -371 -20 -77 -33 -114 -43 -114 -8
0 -13 6 -11 13 1 8 -2 11 -9 6 -53 -32 4 212 90 386 45 90 95 164 99 145 2 -8
10 -15 18 -15z m972 -492 l3 -45 74 -22 c102 -29 105 -29 105 20 0 28 4 39 13
37 8 -3 13 -36 15 -106 2 -86 0 -102 -13 -102 -11 0 -15 11 -15 45 0 40 -3 47
-27 56 -50 19 -143 42 -148 37 -3 -2 -6 -20 -8 -38 -1 -18 -8 -35 -15 -38 -9
-3 -12 23 -12 103 0 81 3 106 13 103 6 -3 13 -25 15 -50z m384 -118 c31 -15
48 -55 48 -116 0 -41 -12 -64 -24 -45 -3 4 -28 11 -55 15 -59 8 -101 38 -101
72 0 40 21 41 127 9 19 -6 21 -4 16 15 -8 28 -65 53 -104 45 -22 -5 -29 -3
-29 8 0 9 6 17 12 19 17 6 77 -6 110 -22z m116 3 c6 -19 -25 -16 -32 3 -4 11
-1 14 11 12 9 -2 18 -9 21 -15z m0 -102 c3 -72 -3 -100 -19 -84 -6 6 -11 43
-12 82 -2 60 0 71 13 69 11 -2 16 -19 18 -67z m140 27 c19 -6 38 -20 44 -34
15 -32 1 -44 -20 -17 -22 29 -71 48 -86 33 -6 -6 -11 -32 -12 -58 0 -32 -5
-47 -14 -47 -9 0 -14 19 -15 65 -2 36 -1 68 2 72 4 8 50 2 101 -14z m263 -78
c26 -14 39 -27 39 -41 0 -20 -1 -20 -30 5 -34 28 -96 44 -111 29 -13 -13 6
-27 60 -42 54 -16 92 -51 84 -80 -4 -16 -13 -21 -38 -21 -63 0 -135 36 -135
67 0 11 9 8 29 -10 30 -25 93 -43 111 -32 21 13 -5 35 -66 55 -71 24 -92 47
-73 81 9 18 17 20 51 15 22 -4 57 -16 79 -26z m139 -40 c53 0 103 -31 117 -71
14 -43 6 -87 -18 -100 -20 -10 -105 6 -115 22 -10 16 -25 9 -20 -8 3 -10 2
-24 -3 -32 -16 -25 -24 8 -23 93 1 128 1 121 14 108 7 -7 28 -12 48 -12z m279
-80 c46 -23 51 -34 51 -111 0 -55 -7 -69 -23 -52 -4 3 -23 8 -43 10 -86 9
-141 68 -98 104 14 11 25 10 75 -7 55 -20 59 -20 59 -4 0 21 -15 34 -58 48
-23 8 -40 8 -52 2 -13 -7 -21 -7 -25 0 -21 34 55 41 114 10z m208 -59 c23 -11
44 -29 48 -41 10 -32 0 -35 -26 -7 -27 28 -82 49 -104 41 -22 -9 -19 -77 4
-98 24 -22 87 -32 105 -17 9 7 17 8 20 2 11 -17 -6 -41 -28 -41 -39 0 -116 31
-131 53 -15 22 -20 82 -9 111 8 22 69 20 121 -3z m-784 -48 c-20 -8 -15 -22
12 -35 26 -11 34 -42 14 -53 -6 -4 -9 0 -7 9 2 9 -10 26 -26 39 -30 24 -29 48
2 46 11 0 12 -3 5 -6z m988 -13 c41 -22 66 -58 56 -84 -6 -14 -36 -10 -124 18
-33 11 -30 -17 5 -44 21 -17 36 -21 69 -17 47 5 58 0 42 -20 -14 -16 -32 -16
-83 -2 -58 16 -86 49 -86 102 0 23 5 48 12 55 18 18 64 14 109 -8z m666 -22
c-3 -8 -6 -5 -6 6 -1 11 2 17 5 13 3 -3 4 -12 1 -19z m-1676 -30 c11 -21 11
-22 -4 -9 -10 7 -17 17 -17 22 0 15 9 10 21 -13z m172 -21 c-3 -20 -10 -37
-15 -37 -6 0 -7 14 -3 33 13 60 28 64 18 4z m-33 3 c0 -10 -4 -22 -10 -25 -5
-3 -10 1 -10 9 0 9 -7 16 -15 16 -8 0 -15 -5 -15 -11 0 -5 -4 -7 -10 -4 -18
11 -10 25 15 25 14 0 25 5 25 11 0 5 5 7 10 4 6 -3 10 -15 10 -25z m78 -7
c-10 -2 -18 -14 -19 -26 0 -12 -3 -16 -6 -9 -8 20 5 42 24 41 17 -1 17 -2 1
-6z m40 -25 c-2 -16 -10 -24 -28 -25 -14 -1 -18 0 -7 3 9 3 17 14 17 25 0 10
5 19 11 19 6 0 9 -10 7 -22z m29 -13 c-9 -18 -13 -20 -15 -9 -5 21 6 46 17 40
5 -4 4 -16 -2 -31z m40 -32 c-3 -10 -5 -2 -5 17 0 19 2 27 5 18 2 -10 2 -26 0
-35z m1390 -250 c-2 -16 -4 -5 -4 22 0 28 2 40 4 28 2 -13 2 -35 0 -50z m0
-130 c-2 -16 -4 -5 -4 22 0 28 2 40 4 28 2 -13 2 -35 0 -50z m-40 -295 c-3 -8
-6 -5 -6 6 -1 11 2 17 5 13 3 -3 4 -12 1 -19z m-1411 -1073 c-26 -20 -57 -20
-50 0 4 9 19 15 38 15 29 -1 30 -1 12 -15z m-551 -216 c38 -10 119 -25 179
-31 78 -9 101 -14 82 -19 -33 -9 -185 -4 -194 7 -4 4 3 4 15 1 13 -3 26 0 30
6 4 7 -11 8 -48 4 -36 -4 -49 -3 -39 3 13 8 13 10 -2 10 -25 0 -111 30 -123
42 -7 8 -4 9 10 4 11 -4 51 -16 90 -27z m-30 -36 c-11 -3 -26 -10 -32 -15 -9
-7 -13 -7 -13 0 0 13 18 21 45 20 l20 0 -20 -5z"/>
<path d="M577 3753 c-4 -3 -7 -12 -7 -20 0 -20 28 -15 40 7 9 17 8 20 -8 20
-10 0 -22 -3 -25 -7z"/>
<path d="M1590 2827 c0 -20 23 -33 72 -42 21 -4 38 -3 42 4 9 14 -34 41 -78
48 -29 4 -36 2 -36 -10z"/>
<path d="M2327 2694 c-4 -4 -7 -26 -7 -48 0 -47 16 -62 79 -72 34 -5 40 -3 46
15 11 37 -4 78 -33 90 -43 17 -77 23 -85 15z"/>
<path d="M2530 2554 c0 -17 57 -44 95 -44 42 0 29 27 -22 44 -58 20 -73 20
-73 0z"/>
<path d="M2957 2513 c-17 -17 -3 -31 49 -47 60 -19 68 -18 59 7 -9 21 -95 54
-108 40z"/>
<path d="M3940 4000 c0 -6 -8 -14 -17 -17 -10 -4 -27 -16 -38 -26 -11 -10 -42
-34 -70 -53 -78 -52 -348 -253 -388 -289 -15 -14 -32 -25 -37 -25 -6 0 -10 -9
-10 -21 0 -11 -4 -17 -10 -14 -15 9 -12 -8 5 -32 18 -26 29 -23 100 22 130 83
299 193 382 249 l93 61 0 78 c0 42 -2 77 -5 77 -3 0 -5 -5 -5 -10z"/>
<path d="M3870 3409 c-155 -107 -250 -181 -244 -190 3 -5 -3 -9 -12 -9 -14 0
-15 -3 -6 -12 9 -9 15 -9 23 -1 11 11 39 7 49 -8 3 -5 25 -10 48 -11 38 -3 42
-6 42 -29 0 -24 -52 -117 -73 -130 -6 -4 -4 -19 7 -39 9 -18 16 -39 16 -47 0
-7 4 -13 8 -13 5 0 14 -11 20 -25 10 -21 15 -24 31 -15 11 5 26 7 34 4 8 -3
21 2 30 10 21 21 45 20 43 -1 -1 -22 24 -27 47 -9 16 12 17 36 15 295 l-3 282
-75 -52z"/>
<path d="M3876 994 c-32 -19 -62 -34 -67 -34 -5 0 -9 -4 -9 -10 0 -5 -4 -10
-9 -10 -9 0 -147 -75 -326 -178 -78 -44 -184 -104 -295 -165 -119 -65 -274
-151 -473 -261 -115 -64 -211 -116 -214 -116 -3 0 -17 -8 -31 -18 -15 -11 -54
-33 -87 -51 -90 -48 -173 -104 -180 -120 -3 -8 0 -18 7 -23 7 -4 406 -8 886
-8 l872 0 0 515 c0 283 -3 515 -7 514 -5 0 -34 -16 -67 -35z"/>
<path d="M1508 463 c6 -2 10 -8 7 -13 -3 -4 4 -6 16 -3 16 4 17 8 7 14 -7 5
-20 8 -28 8 -10 0 -11 -2 -2 -6z"/>
<path d="M1090 270 c0 -5 5 -10 10 -10 6 0 10 5 10 10 0 6 -4 10 -10 10 -5 0
-10 -4 -10 -10z"/>
</g>
</svg>
